<svg width="408" height="408" viewBox="0 0 408 408" fill="none" xmlns="http://www.w3.org/2000/svg">
<path d="M30.3213 269.212C26.644 266.234 26.0768 260.839 29.0546 257.162L219.385 22.1233C222.363 18.446 227.758 17.879 231.435 20.8568L377.253 138.937C380.93 141.915 381.497 147.31 378.519 150.987L188.189 386.026C185.211 389.703 179.816 390.27 176.139 387.293L30.3213 269.212Z" fill="#C4C4C4"/>
<path d="M27.1499 260.044C23.6335 256.878 23.3495 251.461 26.5157 247.944L228.886 23.189C232.053 19.6726 237.47 19.3887 240.986 22.5549L380.424 148.105C383.94 151.271 384.224 156.689 381.058 160.205L178.687 384.96C175.521 388.477 170.104 388.761 166.588 385.594L27.1499 260.044Z" fill="#78D600"/>
<path d="M24.6809 250.941C21.335 247.596 21.335 242.171 24.6808 238.825L238.537 24.9688C241.883 21.6229 247.308 21.6229 250.653 24.9688L383.329 157.644C386.675 160.99 386.675 166.415 383.329 169.761L169.473 383.617C166.127 386.963 160.702 386.963 157.357 383.617L24.6809 250.941Z" fill="#222222"/>
<mask id="mask0" mask-type="alpha" maskUnits="userSpaceOnUse" x="22" y="22" width="364" height="365">
<path d="M24.6809 250.941C21.335 247.596 21.335 242.171 24.6808 238.825L238.537 24.9688C241.883 21.6229 247.308 21.6229 250.653 24.9688L383.329 157.644C386.675 160.99 386.675 166.415 383.329 169.761L169.473 383.617C166.127 386.963 160.702 386.963 157.357 383.617L24.6809 250.941Z" fill="#222222"/>
</mask>
<g mask="url(#mask0)">
<path d="M179.981 129.344C179.402 128.765 178.938 128.139 178.589 127.466C178.235 126.789 178.01 126.121 177.912 125.461C177.814 124.801 177.812 124.147 177.905 123.5C177.999 122.852 178.193 122.246 178.487 121.679C178.776 121.109 179.143 120.602 179.585 120.159C180.228 119.516 180.925 119.02 181.674 118.671C182.019 118.513 182.266 118.36 182.415 118.211C182.543 118.083 182.609 117.949 182.613 117.808C182.613 117.664 182.575 117.476 182.498 117.246L182.779 116.965L185.788 119.974L185.507 120.255C184.723 119.778 183.942 119.478 183.163 119.354C182.928 119.316 182.705 119.297 182.492 119.297C182.279 119.297 182.03 119.329 181.744 119.392C181.459 119.448 181.159 119.569 180.844 119.757C180.533 119.94 180.224 120.185 179.918 120.491C178.993 121.415 178.659 122.512 178.915 123.781C179.17 125.041 180.024 126.398 181.476 127.85C182.924 129.298 184.27 130.141 185.513 130.379C186.757 130.618 187.843 130.273 188.771 129.344C189.414 128.701 189.706 127.992 189.646 127.217C189.586 126.434 189.248 125.733 188.63 125.116L187.698 124.183L185.896 125.985L185.564 125.652L190.138 121.079L190.47 121.411L189.103 122.778L192.367 126.055L192.086 126.336C191.882 126.251 191.703 126.212 191.55 126.221C191.396 126.221 191.254 126.287 191.122 126.419C190.947 126.594 190.764 126.909 190.572 127.364C190.176 128.322 189.686 129.093 189.103 129.677C188.541 130.239 187.889 130.673 187.148 130.98C186.412 131.282 185.641 131.444 184.836 131.465C184.027 131.482 183.194 131.314 182.338 130.961C181.487 130.603 180.701 130.064 179.981 129.344Z" fill="white"/>
<path d="M194.341 124.081L194.009 123.749L195.235 122.522L186.74 114.027L185.513 115.253L185.181 114.921L188.963 111.14L189.295 111.472L188.068 112.698L196.564 121.194L197.79 119.967L198.122 120.3L194.341 124.081Z" fill="white"/>
<path d="M199.362 119.06L199.03 118.728L200.256 117.502L191.76 109.006L190.534 110.233L190.202 109.9L197.356 102.746L200.409 105.518L200.077 105.851C199.115 105.178 198.267 104.794 197.535 104.701C196.666 104.59 195.904 104.863 195.248 105.518L193.089 107.677L196.96 111.548L198.059 110.45C198.51 109.998 198.646 109.411 198.467 108.687C198.404 108.435 198.254 108.125 198.02 107.754C197.786 107.384 197.605 107.134 197.477 107.007L197.784 106.7L202.14 111.057L201.834 111.363C201.706 111.235 201.457 111.054 201.086 110.82C200.716 110.586 200.405 110.437 200.154 110.373C199.43 110.194 198.842 110.33 198.391 110.782L197.292 111.881L201.585 116.173L202.811 114.947L203.143 115.279L199.362 119.06Z" fill="white"/>
<path d="M202.466 105.148L198.863 101.239L207.219 92.8835L211.128 96.4862L210.796 96.8184C209.663 95.873 208.632 95.3109 207.704 95.132C206.55 94.9063 205.6 95.1661 204.855 95.9113L204.037 96.7289L212.533 105.225L213.76 103.998L214.092 104.33L210.31 108.112L209.978 107.78L211.204 106.553L202.709 98.0576L201.891 98.8752C201.146 99.6204 200.886 100.57 201.112 101.724C201.291 102.652 201.853 103.683 202.798 104.816L202.466 105.148Z" fill="white"/>
<path d="M216.762 92.5642C216.183 91.985 215.718 91.359 215.369 90.6862C215.016 90.0091 214.79 89.3405 214.692 88.6804C214.594 88.0204 214.592 87.3667 214.686 86.7194C214.779 86.0721 214.973 85.4653 215.267 84.8989C215.557 84.3283 215.923 83.8215 216.366 83.3787C217.009 82.7356 217.705 82.2395 218.454 81.8903C218.799 81.7328 219.046 81.5795 219.195 81.4304C219.323 81.3027 219.389 81.1685 219.393 81.028C219.393 80.8832 219.355 80.6958 219.279 80.4659L219.56 80.1848L222.568 83.1934L222.287 83.4745C221.504 82.9975 220.722 82.6973 219.943 82.5738C219.709 82.5355 219.485 82.5163 219.272 82.5163C219.059 82.5163 218.81 82.5483 218.525 82.6121C218.239 82.6675 217.939 82.7889 217.624 82.9762C217.313 83.1594 217.004 83.4042 216.698 83.7108C215.774 84.6349 215.44 85.7315 215.695 87.0005C215.951 88.261 216.804 89.6173 218.256 91.0694C219.704 92.5173 221.05 93.3605 222.293 93.599C223.537 93.8374 224.623 93.4925 225.551 92.5642C225.858 92.2575 226.103 91.9488 226.286 91.6379C226.473 91.3228 226.597 91.0247 226.656 90.7437C226.716 90.4541 226.746 90.2028 226.746 89.9899C226.746 89.777 226.727 89.5534 226.688 89.3192C226.565 88.5399 226.265 87.7585 225.788 86.9749L226.069 86.6939L229.077 89.7025L228.796 89.9835C228.643 89.9324 228.521 89.9005 228.432 89.8877C228.347 89.8707 228.249 89.8749 228.138 89.9005C228.023 89.9218 227.921 89.9771 227.832 90.0666C227.683 90.2156 227.529 90.4626 227.372 90.8075C227.023 91.557 226.526 92.2533 225.883 92.8963C225.321 93.4584 224.67 93.8928 223.929 94.1994C223.192 94.5018 222.421 94.6636 221.616 94.6849C220.807 94.7019 219.975 94.5337 219.119 94.1802C218.267 93.8225 217.481 93.2838 216.762 92.5642Z" fill="white"/>
<path d="M230.227 88.195L229.895 87.8628L231.287 86.4703L225.232 74.5125L225.615 74.1293L237.969 79.7888L239.131 78.6262L239.464 78.9584L235.171 83.2509L234.839 82.9187L236.436 81.3218L232.412 79.4694L229.742 82.1394L231.722 86.0359L233.063 84.6945L233.395 85.0267L230.227 88.195ZM229.512 81.7051L231.952 79.265L227.18 77.074L229.512 81.7051Z" fill="white"/>
<path d="M240.447 77.9747L240.115 77.6425L241.342 76.4161L232.846 67.9205L231.62 69.1469L231.287 68.8147L235.146 64.9566C235.631 64.4711 236.125 64.1049 236.627 63.8579C237.13 63.6109 237.598 63.4917 238.033 63.5002C238.463 63.5044 238.861 63.5832 239.227 63.7365C239.589 63.8856 239.913 64.1027 240.198 64.3881C240.752 64.9417 241.035 65.5485 241.048 66.2086C241.056 66.8644 240.843 67.5372 240.409 68.2271L240.486 68.3037C241.239 67.7544 241.963 67.4861 242.657 67.4989C243.356 67.5074 243.939 67.7459 244.408 68.2143L245.8 69.6068C246.247 70.0539 246.637 70.2988 246.969 70.3414C247.301 70.3755 247.642 70.2179 247.991 69.8687C248.234 69.626 248.438 69.3236 248.604 68.9616L249 69.2044C248.715 69.7707 248.34 70.286 247.876 70.7502C247.668 70.9589 247.442 71.1335 247.199 71.274C246.961 71.4188 246.69 71.5316 246.388 71.6125C246.09 71.6892 245.773 71.6743 245.436 71.5678C245.104 71.4571 244.785 71.2484 244.478 70.9418L242.983 69.4471C242.502 68.9659 241.968 68.6912 241.38 68.6231C240.797 68.5507 240.247 68.7721 239.732 69.2874L238.301 70.7183L242.67 75.0874L243.897 73.861L244.229 74.1932L240.447 77.9747ZM237.969 70.3861L239.604 68.7509C239.834 68.5209 239.981 68.2846 240.045 68.0418C240.113 67.7948 240.105 67.5478 240.019 67.3008C239.93 67.0496 239.802 66.8111 239.636 66.5854C239.47 66.3512 239.253 66.1 238.985 65.8317C238.733 65.5804 238.463 65.3696 238.173 65.1993C237.888 65.0247 237.586 64.8969 237.266 64.816C236.951 64.7309 236.627 64.7351 236.295 64.8288C235.963 64.9225 235.657 65.1099 235.375 65.3909L234.175 66.5918L237.969 70.3861Z" fill="white"/>
<path d="M249.965 68.457L249.633 68.1249L250.859 66.8984L242.364 58.4028L241.137 59.6292L240.805 59.2971L245.398 54.7043C245.781 54.3211 246.224 54.0017 246.726 53.7462C247.225 53.4864 247.776 53.3097 248.381 53.216C248.981 53.118 249.592 53.1159 250.214 53.2096C250.84 53.299 251.487 53.5205 252.156 53.8739C252.82 54.2231 253.448 54.6937 254.04 55.2856C254.632 55.8775 255.103 56.5056 255.452 57.17C255.797 57.83 256.012 58.4709 256.097 59.0927C256.182 59.7059 256.174 60.3106 256.072 60.9068C255.969 61.503 255.788 62.0502 255.529 62.5484C255.265 63.0424 254.941 63.481 254.558 63.8643L249.965 68.457ZM252.188 65.5698L253.932 63.8259C254.358 63.4001 254.66 62.9444 254.839 62.459C255.018 61.9735 255.084 61.4987 255.037 61.0345C254.99 60.5703 254.852 60.087 254.622 59.5845C254.392 59.082 254.104 58.6072 253.759 58.1601C253.419 57.7087 253.014 57.2488 252.546 56.7803C252.077 56.3119 251.615 55.9052 251.159 55.5603C250.708 55.2111 250.229 54.9194 249.722 54.6852C249.211 54.4467 248.722 54.3019 248.253 54.2508C247.78 54.1954 247.299 54.2551 246.809 54.4297C246.32 54.6043 245.862 54.9045 245.436 55.3303L243.692 57.0742L252.188 65.5698Z" fill="white"/>
<path d="M131.053 125.382L125.396 131.039L285.202 290.845L290.859 285.188L131.053 125.382Z" fill="white"/>
<path d="M71.6556 343.171L77.3125 348.828L361.569 64.5711L355.913 58.9142L71.6556 343.171Z" fill="white"/>
<g filter="url(#filter0_d)">
<path fill-rule="evenodd" clip-rule="evenodd" d="M190.902 222.055C197.545 215.412 197.549 204.647 190.912 198.01C184.275 191.372 173.509 191.377 166.867 198.019C160.224 204.662 160.22 215.427 166.857 222.065C173.494 228.702 184.259 228.697 190.902 222.055ZM197.398 228.551C207.631 218.318 207.638 201.733 197.413 191.508C187.188 181.283 170.604 181.29 160.371 191.523C150.137 201.757 150.131 218.341 160.356 228.566C170.58 238.791 187.165 238.784 197.398 228.551Z" fill="white"/>
<path fill-rule="evenodd" clip-rule="evenodd" d="M222.759 190.198C229.401 183.556 229.406 172.79 222.769 166.153C216.131 159.516 205.366 159.52 198.723 166.163C192.081 172.805 192.076 183.571 198.714 190.208C205.351 196.845 216.116 196.841 222.759 190.198ZM229.255 196.694C239.488 186.461 239.495 169.876 229.27 159.652C219.045 149.427 202.461 149.434 192.227 159.667C181.994 169.9 181.987 186.484 192.212 196.709C202.437 206.934 219.022 206.927 229.255 196.694Z" fill="white"/>
<path d="M261.381 189.242C242.714 207.317 216.108 208.29 200.348 194.42L193.835 200.933C213.741 218.959 246.22 216.793 267.878 195.739L261.381 189.242Z" fill="white"/>
<path d="M188.607 260.718C206.681 242.051 207.654 215.445 193.784 199.685L200.297 193.172C218.323 213.078 216.157 245.557 195.103 267.214L188.607 260.718Z" fill="white"/>
</g>
<path d="M161.517 353.769C160.99 353.241 160.703 352.674 160.656 352.067C160.603 351.453 160.813 350.909 161.287 350.435C161.547 350.174 161.841 350.027 162.168 349.994C162.495 349.947 162.782 350.047 163.029 350.294C163.503 350.768 163.576 351.396 163.249 352.177C163.129 352.471 163.082 352.711 163.109 352.898C163.136 353.071 163.246 353.255 163.439 353.448C163.767 353.775 164.284 353.866 164.991 353.719C165.706 353.565 166.46 353.238 167.254 352.738L160.786 346.269C160.132 346.59 159.534 346.833 158.994 347C158.453 347.154 157.902 347.237 157.342 347.251C156.788 347.257 156.25 347.147 155.73 346.92C155.216 346.686 154.715 346.326 154.228 345.839C153.327 344.938 152.806 343.863 152.666 342.615C152.526 341.366 152.776 340.128 153.417 338.9L152.245 337.728L152.846 337.128L153.857 338.139C154.184 337.665 154.551 337.224 154.959 336.817C155.286 336.49 155.586 336.216 155.86 335.996L154.919 335.055L155.519 334.454L156.541 335.476C157.642 334.708 158.693 334.284 159.695 334.204C160.703 334.117 161.53 334.398 162.178 335.045C162.632 335.499 162.909 336.01 163.009 336.577C163.116 337.138 162.966 337.622 162.558 338.029C162.278 338.309 161.974 338.459 161.647 338.479C161.32 338.499 161.053 338.406 160.846 338.199C160.459 337.812 160.336 337.274 160.476 336.587C160.516 336.4 160.536 336.26 160.536 336.166C160.542 336.066 160.522 335.946 160.476 335.806C160.422 335.659 160.332 335.522 160.205 335.395C159.918 335.108 159.491 335.035 158.924 335.175C158.35 335.309 157.736 335.589 157.081 336.016L162.889 341.824C164.511 340.976 165.856 340.579 166.924 340.632C167.985 340.679 169.013 341.199 170.008 342.194C171.129 343.316 171.75 344.55 171.87 345.899C171.99 347.247 171.68 348.572 170.939 349.874L172.341 351.276L171.74 351.876L170.478 350.615C170.171 351.055 169.798 351.496 169.357 351.936C169.11 352.183 168.81 352.45 168.456 352.738L169.667 353.949L169.067 354.55L167.765 353.248C167.231 353.609 166.697 353.909 166.163 354.149C165.622 354.383 165.075 354.55 164.521 354.65C163.96 354.743 163.416 354.72 162.889 354.58C162.368 354.433 161.911 354.163 161.517 353.769ZM153.527 341.814C153.6 342.581 153.907 343.235 154.448 343.776C154.989 344.317 155.586 344.614 156.24 344.667C156.888 344.714 157.689 344.534 158.643 344.127L153.957 339.441C153.597 340.255 153.453 341.046 153.527 341.814ZM167.965 352.247C168.299 351.993 168.606 351.726 168.886 351.446C169.307 351.025 169.667 350.578 169.968 350.104L164.25 344.387L161.587 345.869L167.965 352.247ZM159.464 343.746L162.108 342.244L156.37 336.507C156.023 336.774 155.706 337.051 155.419 337.338C155.019 337.738 154.672 338.179 154.378 338.66L159.464 343.746ZM170.398 349.333C170.872 348.365 171.083 347.407 171.029 346.46C170.976 345.498 170.599 344.667 169.898 343.966C169.297 343.366 168.626 343.075 167.885 343.095C167.144 343.115 166.196 343.409 165.041 343.976L170.398 349.333ZM166.163 332.582C166.597 331.667 166.924 330.826 167.144 330.059C167.364 329.278 167.488 328.433 167.515 327.525C167.541 326.618 167.431 325.693 167.184 324.752L167.705 324.231L181.703 338.229L184.346 335.586L184.827 336.066L177.698 343.195L177.217 342.715L179.86 340.071L168.476 328.687L168.366 328.737C168.132 330.025 167.651 331.42 166.924 332.922L166.163 332.582ZM180.601 326.274C179.96 325.633 179.366 324.899 178.819 324.071C178.265 323.237 177.798 322.356 177.417 321.428C177.043 320.493 176.783 319.579 176.636 318.684C176.496 317.783 176.529 316.915 176.736 316.081C176.937 315.24 177.324 314.532 177.898 313.958C178.472 313.384 179.179 312.997 180.021 312.797C180.855 312.59 181.719 312.56 182.614 312.707C183.515 312.847 184.429 313.107 185.357 313.488C186.292 313.861 187.176 314.325 188.011 314.879C188.838 315.427 189.573 316.021 190.214 316.662C191.021 317.469 191.729 318.404 192.336 319.465C192.95 320.52 193.411 321.601 193.718 322.709C194.018 323.811 194.082 324.895 193.908 325.963C193.735 327.031 193.291 327.923 192.577 328.637C191.862 329.351 190.971 329.795 189.903 329.969C188.835 330.142 187.75 330.079 186.649 329.778C185.548 329.465 184.466 329.004 183.405 328.397C182.344 327.789 181.409 327.082 180.601 326.274ZM182.684 324.191C184.346 325.853 185.751 327.078 186.899 327.866C188.054 328.647 189.042 329.061 189.863 329.107C190.684 329.141 191.428 328.824 192.096 328.156C192.763 327.489 193.077 326.748 193.037 325.933C192.997 325.106 192.583 324.118 191.796 322.97C191.015 321.815 189.793 320.406 188.131 318.744C185.634 316.248 183.628 314.662 182.113 313.988C180.605 313.307 179.36 313.458 178.378 314.439C177.404 315.413 177.257 316.662 177.938 318.184C178.612 319.699 180.194 321.701 182.684 324.191ZM192.136 314.739C191.495 314.098 190.901 313.364 190.354 312.536C189.8 311.702 189.332 310.821 188.952 309.893C188.578 308.958 188.318 308.044 188.171 307.149C188.031 306.248 188.064 305.381 188.271 304.546C188.471 303.705 188.858 302.998 189.433 302.423C190.007 301.849 190.714 301.462 191.555 301.262C192.39 301.055 193.254 301.025 194.149 301.172C195.05 301.312 195.964 301.572 196.892 301.953C197.827 302.327 198.711 302.791 199.545 303.345C200.373 303.892 201.107 304.486 201.748 305.127C202.556 305.935 203.263 306.869 203.871 307.93C204.485 308.985 204.946 310.067 205.253 311.175C205.553 312.276 205.616 313.361 205.443 314.429C205.269 315.497 204.825 316.388 204.111 317.102C203.397 317.816 202.506 318.26 201.438 318.434C200.37 318.607 199.285 318.544 198.184 318.244C197.082 317.93 196.001 317.469 194.94 316.862C193.878 316.254 192.944 315.547 192.136 314.739ZM194.219 312.657C195.881 314.319 197.286 315.544 198.434 316.331C199.589 317.112 200.577 317.526 201.398 317.573C202.219 317.606 202.963 317.289 203.631 316.622C204.298 315.954 204.612 315.213 204.572 314.399C204.532 313.571 204.118 312.583 203.33 311.435C202.549 310.28 201.328 308.872 199.666 307.21C197.169 304.713 195.163 303.128 193.648 302.454C192.139 301.773 190.894 301.923 189.913 302.904C188.939 303.879 188.792 305.127 189.473 306.649C190.147 308.164 191.729 310.167 194.219 312.657Z" fill="white"/>
</g>
<defs>
<filter id="filter0_d" x="148.691" y="151.988" width="123.187" height="123.226" filterUnits="userSpaceOnUse" color-interpolation-filters="sRGB">
<feFlood flood-opacity="0" result="BackgroundImageFix"/>
<feColorMatrix in="SourceAlpha" type="matrix" values="0 0 0 0 0 0 0 0 0 0 0 0 0 0 0 0 0 0 127 0"/>
<feOffset dy="4"/>
<feGaussianBlur stdDeviation="2"/>
<feColorMatrix type="matrix" values="0 0 0 0 0 0 0 0 0 0 0 0 0 0 0 0 0 0 0.25 0"/>
<feBlend mode="normal" in2="BackgroundImageFix" result="effect1_dropShadow"/>
<feBlend mode="normal" in="SourceGraphic" in2="effect1_dropShadow" result="shape"/>
</filter>
</defs>
</svg>
