<svg width="405" height="406" viewBox="0 0 405 406" fill="none" xmlns="http://www.w3.org/2000/svg">
<path d="M133.983 15.3229L13.4397 137.46L14.9322 146.517L254.892 389.225L269.245 390.725L390.685 270.51L389.151 257.181L147.439 14.8997L133.983 15.3229Z" fill="white"/>
<path d="M11.5959 143.465L143.591 11.4698L168.779 36.6577L36.7839 168.653L11.5959 143.465Z" fill="#EAEAEA"/>
<path fill-rule="evenodd" clip-rule="evenodd" d="M14.8681 153.212C8.1318 146.475 8.11345 135.572 14.8271 128.858L128.488 15.1977C135.201 8.48401 146.105 8.50234 152.841 15.2387L186.383 48.7809C187.726 47.4382 189.907 47.4418 191.254 48.7891L215.648 73.1834C216.996 74.5307 216.999 76.7114 215.657 78.0541L390.076 252.474C396.813 259.21 396.831 270.113 390.117 276.827L276.457 390.488C269.743 397.201 258.84 397.183 252.103 390.447L80.123 218.467C78.7803 219.809 76.5996 219.806 75.2523 218.458L63.0551 206.261C61.7079 204.914 61.7042 202.733 63.047 201.391L59.3878 197.731C58.0451 199.074 55.8644 199.07 54.5171 197.723L42.3199 185.526C40.9727 184.179 40.969 181.998 42.3118 180.655L14.8681 153.212ZM134.586 21.2963C137.943 17.9394 143.395 17.9486 146.763 21.3168L383.998 258.552C387.366 261.92 387.375 267.372 384.019 270.729L270.358 384.389C267.001 387.746 261.549 387.737 258.181 384.369L20.9462 147.134C17.5781 143.765 17.5689 138.314 20.9257 134.957L40.3757 115.507C42.0541 113.829 44.78 113.833 46.464 115.517L47.0739 116.127C50.442 119.495 55.8937 119.504 59.2506 116.148L115.169 60.2289C118.526 56.8721 118.517 51.4204 115.149 48.0522L114.539 47.4424C112.855 45.7583 112.85 43.0325 114.529 41.354L134.586 21.2963Z" fill="#222222"/>
<path d="M58.5386 170.973C57.7242 170.158 57.722 168.84 58.5336 168.028L83.1271 143.435C83.9388 142.623 85.2569 142.626 86.0713 143.44L110.748 168.116C111.562 168.931 111.564 170.249 110.753 171.06L86.1591 195.654C85.3475 196.466 84.0293 196.463 83.2149 195.649L58.5386 170.973Z" fill="#C4C4C4"/>
<path d="M111.187 151.125L114.726 152.933L117.528 150.131L116.913 154.05L120.452 155.857L116.534 156.472L115.92 160.39L114.112 156.851L110.194 157.465L112.995 154.664L111.187 151.125Z" fill="#78D600"/>
<path d="M118.416 143.896L121.955 145.704L124.757 142.902L124.142 146.821L127.681 148.628L123.763 149.243L123.149 153.161L121.341 149.622L117.423 150.236L120.224 147.435L118.416 143.896Z" fill="#78D600"/>
<path d="M125.645 136.668L129.184 138.475L131.985 135.674L131.371 139.592L134.91 141.4L130.991 142.014L130.377 145.932L128.57 142.394L124.651 143.008L127.453 140.206L125.645 136.668Z" fill="#78D600"/>
<path d="M132.874 129.438L136.413 131.246L139.215 128.444L138.6 132.363L142.139 134.17L138.221 134.785L137.607 138.703L135.799 135.164L131.881 135.778L134.682 132.977L132.874 129.438Z" fill="#78D600"/>
<path d="M140.104 122.209L143.643 124.016L146.444 121.215L145.83 125.133L149.369 126.941L145.451 127.555L144.836 131.473L143.029 127.934L139.11 128.549L141.912 125.747L140.104 122.209Z" fill="#B7FF5A"/>
<path fill-rule="evenodd" clip-rule="evenodd" d="M95.7802 140.532C95.2372 139.989 95.2358 139.11 95.7769 138.569L125.739 108.607C126.28 108.066 127.159 108.068 127.702 108.611C128.245 109.153 128.246 110.032 127.705 110.573L97.7429 140.535C97.2018 141.077 96.3231 141.075 95.7802 140.532ZM102.28 147.032C101.737 146.489 101.736 145.611 102.277 145.069L121.712 125.635C122.253 125.094 123.132 125.095 123.675 125.638C124.218 126.181 124.219 127.06 123.678 127.601L104.243 147.036C103.702 147.577 102.823 147.575 102.28 147.032Z" fill="#C4C4C4"/>
<path d="M160.384 109.242C157.019 105.876 157.009 100.428 160.364 97.0742L178.989 78.4491C182.343 75.0948 187.79 75.104 191.156 78.4697V78.4697C194.522 81.8353 194.531 87.2828 191.177 90.6371L172.552 109.262C169.197 112.616 163.75 112.607 160.384 109.242V109.242Z" fill="#78D600"/>
<path fill-rule="evenodd" clip-rule="evenodd" d="M172.209 96.9788C172.245 96.5974 172.583 96.3182 172.964 96.3553L177.34 96.7807C177.722 96.8178 178.002 97.1571 177.966 97.5386C177.93 97.9201 177.592 98.1992 177.211 98.1621L172.835 97.7367C172.453 97.6996 172.173 97.3603 172.209 96.9788Z" fill="white"/>
<path fill-rule="evenodd" clip-rule="evenodd" d="M177.424 97.9435C177.048 98.0162 176.683 97.77 176.609 97.3937L175.133 89.8806C175.059 89.5043 175.304 89.1403 175.68 89.0677C176.056 88.995 176.421 89.2412 176.495 89.6175L177.971 97.1306C178.045 97.5069 177.8 97.8709 177.424 97.9435Z" fill="white"/>
<path d="M93.8909 206.325C93.0766 205.511 93.0743 204.192 93.886 203.381L118.479 178.787C119.291 177.976 120.609 177.978 121.424 178.792L146.1 203.469C146.914 204.283 146.917 205.601 146.105 206.413L121.511 231.006C120.7 231.818 119.382 231.816 118.567 231.001L93.8909 206.325Z" fill="#C4C4C4"/>
<path d="M146.54 186.478L150.079 188.285L152.88 185.484L152.266 189.402L155.805 191.21L151.886 191.824L151.272 195.742L149.464 192.204L145.546 192.818L148.347 190.016L146.54 186.478Z" fill="#78D600"/>
<path d="M153.769 179.249L157.308 181.056L160.109 178.255L159.495 182.173L163.034 183.981L159.115 184.595L158.501 188.513L156.693 184.975L152.775 185.589L155.576 182.787L153.769 179.249Z" fill="#78D600"/>
<path d="M160.997 172.02L164.536 173.828L167.337 171.026L166.723 174.945L170.262 176.752L166.344 177.366L165.729 181.285L163.922 177.746L160.004 178.36L162.805 175.559L160.997 172.02Z" fill="#78D600"/>
<path d="M168.227 164.791L171.766 166.598L174.567 163.797L173.953 167.715L177.492 169.523L173.573 170.137L172.959 174.055L171.151 170.517L167.233 171.131L170.034 168.329L168.227 164.791Z" fill="#78D600"/>
<path d="M175.456 157.561L178.995 159.368L181.797 156.567L181.182 160.485L184.721 162.293L180.803 162.907L180.189 166.826L178.381 163.287L174.463 163.901L177.264 161.1L175.456 157.561Z" fill="#B7FF5A"/>
<path fill-rule="evenodd" clip-rule="evenodd" d="M131.133 175.884C130.59 175.341 130.588 174.463 131.129 173.922L161.091 143.96C161.632 143.418 162.511 143.42 163.054 143.963C163.597 144.506 163.599 145.385 163.057 145.926L133.095 175.888C132.554 176.429 131.675 176.427 131.133 175.884ZM137.633 182.385C137.09 181.842 137.088 180.963 137.629 180.422L157.064 160.987C157.605 160.446 158.484 160.447 159.027 160.99C159.57 161.533 159.571 162.412 159.03 162.953L139.595 182.388C139.054 182.929 138.176 182.927 137.633 182.385Z" fill="#C4C4C4"/>
<path d="M195.736 144.594C192.371 141.228 192.362 135.781 195.716 132.426L214.341 113.801C217.695 110.447 223.143 110.456 226.508 113.822V113.822C229.874 117.188 229.883 122.635 226.529 125.989L207.904 144.615C204.55 147.969 199.102 147.96 195.736 144.594V144.594Z" fill="#78D600"/>
<path fill-rule="evenodd" clip-rule="evenodd" d="M207.561 132.331C207.597 131.95 207.935 131.67 208.317 131.708L212.693 132.133C213.074 132.17 213.354 132.509 213.319 132.891C213.283 133.272 212.944 133.552 212.563 133.514L208.187 133.089C207.805 133.052 207.525 132.713 207.561 132.331Z" fill="white"/>
<path fill-rule="evenodd" clip-rule="evenodd" d="M212.776 133.296C212.4 133.368 212.035 133.122 211.961 132.746L210.485 125.233C210.411 124.857 210.656 124.493 211.032 124.42C211.408 124.347 211.773 124.593 211.847 124.97L213.323 132.483C213.397 132.859 213.152 133.223 212.776 133.296Z" fill="white"/>
<path d="M129.243 241.677C128.429 240.863 128.427 239.545 129.239 238.733L153.832 214.14C154.644 213.328 155.962 213.33 156.776 214.145L181.453 238.821C182.267 239.635 182.269 240.954 181.457 241.765L156.864 266.359C156.052 267.17 154.734 267.168 153.92 266.354L129.243 241.677Z" fill="#C4C4C4"/>
<path d="M181.892 221.83L185.431 223.638L188.232 220.836L187.618 224.755L191.157 226.562L187.239 227.176L186.625 231.095L184.817 227.556L180.899 228.17L183.7 225.369L181.892 221.83Z" fill="#78D600"/>
<path d="M189.121 214.601L192.66 216.409L195.461 213.607L194.847 217.526L198.386 219.333L194.468 219.947L193.853 223.866L192.046 220.327L188.127 220.941L190.929 218.14L189.121 214.601Z" fill="#78D600"/>
<path d="M196.35 207.373L199.889 209.18L202.69 206.379L202.076 210.297L205.615 212.105L201.696 212.719L201.082 216.637L199.274 213.099L195.356 213.713L198.157 210.911L196.35 207.373Z" fill="#78D600"/>
<path d="M203.579 200.143L207.118 201.951L209.919 199.149L209.305 203.068L212.844 204.875L208.926 205.489L208.311 209.408L206.504 205.869L202.585 206.483L205.387 203.682L203.579 200.143Z" fill="#78D600"/>
<path d="M210.809 192.913L214.348 194.721L217.149 191.92L216.535 195.838L220.074 197.646L216.155 198.26L215.541 202.178L213.734 198.639L209.815 199.254L212.616 196.452L210.809 192.913Z" fill="#B7FF5A"/>
<path fill-rule="evenodd" clip-rule="evenodd" d="M166.485 211.237C165.942 210.694 165.941 209.815 166.482 209.274L196.444 179.312C196.985 178.771 197.864 178.772 198.407 179.315C198.95 179.858 198.951 180.737 198.41 181.278L168.448 211.24C167.907 211.781 167.028 211.78 166.485 211.237ZM172.985 217.737C172.442 217.194 172.441 216.315 172.982 215.774L192.417 196.339C192.958 195.798 193.837 195.8 194.38 196.343C194.922 196.886 194.924 197.764 194.383 198.306L174.948 217.74C174.407 218.281 173.528 218.28 172.985 217.737Z" fill="#C4C4C4"/>
<path d="M231.089 179.946C227.723 176.581 227.714 171.133 231.068 167.779L249.693 149.154C253.048 145.8 258.495 145.809 261.861 149.174V149.174C265.226 152.54 265.236 157.988 261.881 161.342L243.256 179.967C239.902 183.321 234.455 183.312 231.089 179.946V179.946Z" fill="#78D600"/>
<path fill-rule="evenodd" clip-rule="evenodd" d="M242.914 167.683C242.949 167.302 243.288 167.023 243.669 167.06L248.045 167.485C248.427 167.522 248.707 167.862 248.671 168.243C248.635 168.625 248.297 168.904 247.915 168.867L243.54 168.441C243.158 168.404 242.878 168.065 242.914 167.683Z" fill="white"/>
<path fill-rule="evenodd" clip-rule="evenodd" d="M248.128 168.648C247.752 168.721 247.388 168.475 247.314 168.099L245.838 160.585C245.764 160.209 246.009 159.845 246.385 159.773C246.761 159.7 247.126 159.946 247.2 160.322L248.676 167.835C248.749 168.212 248.505 168.576 248.128 168.648Z" fill="white"/>
<path d="M164.596 277.03C163.782 276.216 163.779 274.897 164.591 274.086L189.184 249.492C189.996 248.681 191.314 248.683 192.129 249.497L216.805 274.174C217.619 274.988 217.622 276.306 216.81 277.118L192.216 301.711C191.405 302.523 190.087 302.521 189.272 301.706L164.596 277.03Z" fill="#C4C4C4"/>
<path d="M217.245 257.183L220.784 258.99L223.585 256.189L222.971 260.107L226.51 261.915L222.591 262.529L221.977 266.447L220.169 262.909L216.251 263.523L219.052 260.721L217.245 257.183Z" fill="#78D600"/>
<path d="M224.474 249.954L228.013 251.761L230.814 248.96L230.2 252.878L233.739 254.686L229.82 255.3L229.206 259.218L227.398 255.68L223.48 256.294L226.281 253.492L224.474 249.954Z" fill="#78D600"/>
<path d="M231.702 242.725L235.241 244.533L238.042 241.731L237.428 245.65L240.967 247.457L237.049 248.071L236.434 251.99L234.627 248.451L230.708 249.065L233.51 246.264L231.702 242.725Z" fill="#78D600"/>
<path d="M238.932 235.496L242.471 237.303L245.272 234.502L244.658 238.42L248.197 240.228L244.278 240.842L243.664 244.76L241.856 241.222L237.938 241.836L240.739 239.034L238.932 235.496Z" fill="#78D600"/>
<path d="M246.161 228.266L249.7 230.073L252.502 227.272L251.887 231.191L255.426 232.998L251.508 233.612L250.894 237.531L249.086 233.992L245.168 234.606L247.969 231.805L246.161 228.266Z" fill="#B7FF5A"/>
<path fill-rule="evenodd" clip-rule="evenodd" d="M201.838 246.589C201.295 246.047 201.293 245.168 201.834 244.627L231.796 214.665C232.337 214.124 233.216 214.125 233.759 214.668C234.302 215.211 234.303 216.09 233.762 216.631L203.8 246.593C203.259 247.134 202.38 247.132 201.838 246.589ZM208.338 253.09C207.795 252.547 207.793 251.668 208.334 251.127L227.769 231.692C228.31 231.151 229.189 231.152 229.732 231.695C230.275 232.238 230.276 233.117 229.735 233.658L210.3 253.093C209.759 253.634 208.881 253.633 208.338 253.09Z" fill="#C4C4C4"/>
<path d="M266.441 215.299C263.076 211.933 263.067 206.486 266.421 203.131L285.046 184.506C288.4 181.152 293.848 181.161 297.213 184.527V184.527C300.579 187.893 300.588 193.34 297.234 196.694L278.609 215.319C275.255 218.674 269.807 218.664 266.441 215.299V215.299Z" fill="#78D600"/>
<path fill-rule="evenodd" clip-rule="evenodd" d="M278.266 203.036C278.302 202.654 278.64 202.375 279.022 202.412L283.397 202.838C283.779 202.875 284.059 203.214 284.024 203.596C283.988 203.977 283.649 204.256 283.268 204.219L278.892 203.794C278.51 203.757 278.23 203.417 278.266 203.036Z" fill="white"/>
<path fill-rule="evenodd" clip-rule="evenodd" d="M283.481 204.001C283.105 204.074 282.74 203.827 282.666 203.451L281.19 195.938C281.116 195.562 281.361 195.198 281.737 195.125C282.113 195.052 282.478 195.299 282.552 195.675L284.028 203.188C284.102 203.564 283.857 203.928 283.481 204.001Z" fill="white"/>
<path d="M199.948 312.382C199.134 311.568 199.132 310.25 199.943 309.438L224.537 284.845C225.348 284.033 226.667 284.035 227.481 284.85L252.157 309.526C252.972 310.34 252.974 311.658 252.162 312.47L227.569 337.064C226.757 337.875 225.439 337.873 224.625 337.059L199.948 312.382Z" fill="#C4C4C4"/>
<path d="M252.597 292.535L256.136 294.342L258.937 291.541L258.323 295.46L261.862 297.267L257.944 297.881L257.329 301.8L255.522 298.261L251.603 298.875L254.405 296.074L252.597 292.535Z" fill="#78D600"/>
<path d="M259.826 285.306L263.365 287.113L266.166 284.312L265.552 288.231L269.091 290.038L265.173 290.652L264.558 294.571L262.751 291.032L258.832 291.646L261.634 288.845L259.826 285.306Z" fill="#78D600"/>
<path d="M267.055 278.077L270.594 279.885L273.395 277.084L272.781 281.002L276.319 282.81L272.401 283.424L271.787 287.342L269.979 283.803L266.061 284.418L268.862 281.616L267.055 278.077Z" fill="#78D600"/>
<path d="M274.284 270.848L277.823 272.655L280.624 269.854L280.01 273.773L283.549 275.58L279.631 276.194L279.016 280.113L277.209 276.574L273.29 277.188L276.092 274.387L274.284 270.848Z" fill="#78D600"/>
<path d="M281.514 263.618L285.053 265.426L287.854 262.624L287.24 266.543L290.779 268.35L286.86 268.965L286.246 272.883L284.438 269.344L280.52 269.958L283.321 267.157L281.514 263.618Z" fill="#B7FF5A"/>
<path fill-rule="evenodd" clip-rule="evenodd" d="M237.19 281.942C236.647 281.399 236.646 280.52 237.187 279.979L267.149 250.017C267.69 249.476 268.569 249.477 269.111 250.02C269.654 250.563 269.656 251.442 269.115 251.983L239.153 281.945C238.612 282.486 237.733 282.485 237.19 281.942ZM243.69 288.442C243.147 287.899 243.146 287.02 243.687 286.479L263.122 267.044C263.663 266.503 264.541 266.505 265.084 267.048C265.627 267.59 265.629 268.469 265.088 269.01L245.653 288.445C245.112 288.986 244.233 288.985 243.69 288.442Z" fill="#C4C4C4"/>
<path d="M301.794 250.651C298.428 247.286 298.419 241.838 301.773 238.484L320.398 219.859C323.752 216.504 329.2 216.514 332.566 219.879V219.879C335.931 223.245 335.94 228.692 332.586 232.047L313.961 250.672C310.607 254.026 305.159 254.017 301.794 250.651V250.651Z" fill="#78D600"/>
<path fill-rule="evenodd" clip-rule="evenodd" d="M313.618 238.388C313.654 238.007 313.993 237.728 314.374 237.765L318.75 238.19C319.131 238.227 319.412 238.567 319.376 238.948C319.34 239.329 319.002 239.609 318.62 239.572L314.244 239.146C313.863 239.109 313.583 238.77 313.618 238.388Z" fill="white"/>
<path fill-rule="evenodd" clip-rule="evenodd" d="M318.833 239.353C318.457 239.426 318.092 239.18 318.019 238.803L316.543 231.29C316.469 230.914 316.714 230.55 317.09 230.477C317.466 230.405 317.831 230.651 317.904 231.027L319.38 238.54C319.454 238.917 319.209 239.281 318.833 239.353Z" fill="white"/>
<path d="M235.301 347.735C234.486 346.92 234.484 345.602 235.296 344.791L259.889 320.197C260.701 319.386 262.019 319.388 262.833 320.202L287.51 344.878C288.324 345.693 288.326 347.011 287.515 347.823L262.921 372.416C262.11 373.228 260.791 373.226 259.977 372.411L235.301 347.735Z" fill="#C4C4C4"/>
<path d="M287.95 327.887L291.489 329.695L294.29 326.894L293.676 330.812L297.215 332.62L293.296 333.234L292.682 337.152L290.874 333.613L286.956 334.228L289.757 331.426L287.95 327.887Z" fill="#78D600"/>
<path d="M295.179 320.658L298.717 322.466L301.519 319.665L300.905 323.583L304.443 325.391L300.525 326.005L299.911 329.923L298.103 326.384L294.185 326.999L296.986 324.197L295.179 320.658Z" fill="#78D600"/>
<path d="M302.407 313.43L305.946 315.237L308.747 312.436L308.133 316.355L311.672 318.162L307.754 318.776L307.139 322.695L305.332 319.156L301.413 319.77L304.215 316.969L302.407 313.43Z" fill="#78D600"/>
<path d="M309.637 306.2L313.175 308.008L315.977 305.207L315.363 309.125L318.901 310.933L314.983 311.547L314.369 315.465L312.561 311.926L308.643 312.541L311.444 309.739L309.637 306.2Z" fill="#78D600"/>
<path d="M316.866 298.971L320.405 300.778L323.206 297.977L322.592 301.895L326.131 303.703L322.213 304.317L321.598 308.236L319.791 304.697L315.872 305.311L318.674 302.51L316.866 298.971Z" fill="#B7FF5A"/>
<path fill-rule="evenodd" clip-rule="evenodd" d="M272.542 317.294C271.999 316.751 271.998 315.873 272.539 315.332L302.501 285.369C303.042 284.828 303.921 284.83 304.464 285.373C305.007 285.916 305.008 286.794 304.467 287.336L274.505 317.298C273.964 317.839 273.085 317.837 272.542 317.294ZM279.042 323.794C278.5 323.252 278.498 322.373 279.039 321.832L298.474 302.397C299.015 301.856 299.894 301.857 300.437 302.4C300.98 302.943 300.981 303.822 300.44 304.363L281.005 323.798C280.464 324.339 279.585 324.337 279.042 323.794Z" fill="#C4C4C4"/>
<path d="M337.146 286.004C333.781 282.638 333.771 277.191 337.126 273.836L355.751 255.211C359.105 251.857 364.552 251.866 367.918 255.232V255.232C371.284 258.597 371.293 264.045 367.939 267.399L349.314 286.024C345.959 289.379 340.512 289.369 337.146 286.004V286.004Z" fill="#78D600"/>
<path fill-rule="evenodd" clip-rule="evenodd" d="M348.971 273.741C349.007 273.359 349.345 273.08 349.727 273.117L354.102 273.543C354.484 273.58 354.764 273.919 354.728 274.301C354.693 274.682 354.354 274.961 353.973 274.924L349.597 274.499C349.215 274.462 348.935 274.122 348.971 273.741Z" fill="white"/>
<path fill-rule="evenodd" clip-rule="evenodd" d="M354.186 274.706C353.81 274.778 353.445 274.532 353.371 274.156L351.895 266.643C351.821 266.267 352.066 265.903 352.442 265.83C352.818 265.757 353.183 266.003 353.257 266.38L354.733 273.893C354.807 274.269 354.562 274.633 354.186 274.706Z" fill="white"/>
</svg>
